<svg width="25" height="24" viewBox="0 0 25 24" fill="none" xmlns="http://www.w3.org/2000/svg">
<path d="M19.5498 4.91005C18.6329 3.98416 17.5408 3.25002 16.3373 2.75042C15.1338 2.25081 13.8429 1.99574 12.5398 2.00005C7.0798 2.00005 2.6298 6.45005 2.6298 11.9101C2.6298 13.6601 3.0898 15.3601 3.9498 16.8601L2.5498 22.0001L7.7998 20.6201C9.2498 21.4101 10.8798 21.8301 12.5398 21.8301C17.9998 21.8301 22.4498 17.3801 22.4498 11.9201C22.4498 9.27005 21.4198 6.78005 19.5498 4.91005ZM12.5398 20.1501C11.0598 20.1501 9.6098 19.7501 8.3398 19.0001L8.0398 18.8201L4.9198 19.6401L5.7498 16.6001L5.5498 16.2901C4.72735 14.9771 4.29073 13.4593 4.2898 11.9101C4.2898 7.37005 7.9898 3.67005 12.5298 3.67005C14.7298 3.67005 16.7998 4.53005 18.3498 6.09005C19.1174 6.85392 19.7257 7.7626 20.1394 8.76338C20.5531 9.76417 20.764 10.8371 20.7598 11.9201C20.7798 16.4601 17.0798 20.1501 12.5398 20.1501ZM17.0598 13.9901C16.8098 13.8701 15.5898 13.2701 15.3698 13.1801C15.1398 13.1001 14.9798 13.0601 14.8098 13.3001C14.6398 13.5501 14.1698 14.1101 14.0298 14.2701C13.8898 14.4401 13.7398 14.4601 13.4898 14.3301C13.2398 14.2101 12.4398 13.9401 11.4998 13.1001C10.7598 12.4401 10.2698 11.6301 10.1198 11.3801C9.9798 11.1301 10.0998 11.0001 10.2298 10.8701C10.3398 10.7601 10.4798 10.5801 10.5998 10.4401C10.7198 10.3001 10.7698 10.1901 10.8498 10.0301C10.9298 9.86005 10.8898 9.72005 10.8298 9.60005C10.7698 9.48005 10.2698 8.26005 10.0698 7.76005C9.8698 7.28005 9.6598 7.34005 9.5098 7.33005H9.0298C8.8598 7.33005 8.5998 7.39005 8.3698 7.64005C8.1498 7.89005 7.5098 8.49005 7.5098 9.71005C7.5098 10.9301 8.39981 12.1101 8.5198 12.2701C8.6398 12.4401 10.2698 14.9401 12.7498 16.0101C13.3398 16.2701 13.7998 16.4201 14.1598 16.5301C14.7498 16.7201 15.2898 16.6901 15.7198 16.6301C16.1998 16.5601 17.1898 16.0301 17.3898 15.4501C17.5998 14.8701 17.5998 14.3801 17.5298 14.2701C17.4598 14.1601 17.3098 14.1101 17.0598 13.9901Z" fill="white"/>
</svg>
