<svg width="27" height="22" viewBox="0 0 27 22" fill="none" xmlns="http://www.w3.org/2000/svg">
<path d="M26.5748 2.5C25.6123 2.9375 24.5748 3.225 23.4998 3.3625C24.5998 2.7 25.4498 1.65 25.8498 0.3875C24.8123 1.0125 23.6623 1.45 22.4498 1.7C21.4623 0.625 20.0748 0 18.4998 0C15.5623 0 13.1623 2.4 13.1623 5.3625C13.1623 5.7875 13.2123 6.2 13.2998 6.5875C8.8498 6.3625 4.8873 4.225 2.2498 0.9875C1.7873 1.775 1.5248 2.7 1.5248 3.675C1.5248 5.5375 2.4623 7.1875 3.9123 8.125C3.0248 8.125 2.1998 7.875 1.4748 7.5V7.5375C1.4748 10.1375 3.3248 12.3125 5.77481 12.8C4.98835 13.0162 4.16235 13.0461 3.3623 12.8875C3.70181 13.9531 4.36673 14.8855 5.26358 15.5537C6.16042 16.2218 7.24411 16.5921 8.3623 16.6125C6.46689 18.1131 4.11732 18.9242 1.6998 18.9125C1.2748 18.9125 0.849805 18.8875 0.424805 18.8375C2.7998 20.3625 5.6248 21.25 8.64981 21.25C18.4998 21.25 23.9123 13.075 23.9123 5.9875C23.9123 5.75 23.9123 5.525 23.8998 5.2875C24.9498 4.5375 25.8498 3.5875 26.5748 2.5Z" fill="white"/>
</svg>
