<svg width="100" height="100" viewBox="0 0 100 100" fill="none" xmlns="http://www.w3.org/2000/svg">
<path d="M86.8182 70.4545V33.6364H29.5455V70.4545H86.8182ZM86.8182 13.1818C88.9881 13.1818 91.0692 14.0438 92.6036 15.5782C94.138 17.1126 95 19.1937 95 21.3636V70.4545C95 72.6245 94.138 74.7056 92.6036 76.24C91.0692 77.7744 88.9881 78.6364 86.8182 78.6364H29.5455C27.3755 78.6364 25.2944 77.7744 23.76 76.24C22.2256 74.7056 21.3636 72.6245 21.3636 70.4545V21.3636C21.3636 19.1937 22.2256 17.1126 23.76 15.5782C25.2944 14.0438 27.3755 13.1818 29.5455 13.1818H33.6364V5H41.8182V13.1818H74.5455V5H82.7273V13.1818H86.8182ZM13.1818 86.8182H70.4545V95H13.1818C11.0119 95 8.93079 94.138 7.3964 92.6036C5.86201 91.0692 5 88.9881 5 86.8182V37.7273H13.1818V86.8182ZM78.6364 62.2727H62.2727V45.9091H78.6364V62.2727Z" fill="#3B5F5D"/>
</svg>
