<svg width="100" height="100" viewBox="0 0 100 100" fill="none" xmlns="http://www.w3.org/2000/svg">
<path d="M27.5 40.8594C27.5 42.1381 28.008 43.3644 28.9122 44.2686C29.8164 45.1728 31.0427 45.6808 32.3214 45.6808C33.6001 45.6808 34.8265 45.1728 35.7307 44.2686C36.6349 43.3644 37.1429 42.1381 37.1429 40.8594C37.1429 39.5807 36.6349 38.3543 35.7307 37.4501C34.8265 36.5459 33.6001 36.0379 32.3214 36.0379C31.0427 36.0379 29.8164 36.5459 28.9122 37.4501C28.008 38.3543 27.5 39.5807 27.5 40.8594ZM62.8571 40.8594C62.8571 42.1381 63.3651 43.3644 64.2693 44.2686C65.1735 45.1728 66.3998 45.6808 67.6786 45.6808C68.9573 45.6808 70.1836 45.1728 71.0878 44.2686C71.992 43.3644 72.5 42.1381 72.5 40.8594C72.5 39.5807 71.992 38.3543 71.0878 37.4501C70.1836 36.5459 68.9573 36.0379 67.6786 36.0379C66.3998 36.0379 65.1735 36.5459 64.2693 37.4501C63.3651 38.3543 62.8571 39.5807 62.8571 40.8594ZM50 5C25.1496 5 5 25.1496 5 50C5 74.8504 25.1496 95 50 95C74.8504 95 95 74.8504 95 50C95 25.1496 74.8504 5 50 5ZM76.4174 76.4174C72.9821 79.8527 68.9844 82.5446 64.5346 84.433C59.9442 86.3817 55.0525 87.3661 50 87.3661C44.9475 87.3661 40.0558 86.3817 35.4554 84.433C31.0123 82.5566 26.9765 79.8342 23.5725 76.4174C20.1373 72.9821 17.4453 68.9844 15.5569 64.5346C13.6183 59.9442 12.6339 55.0525 12.6339 50C12.6339 44.9475 13.6183 40.0558 15.567 35.4554C17.4434 31.0123 20.1658 26.9765 23.5826 23.5725C27.0179 20.1373 31.0156 17.4453 35.4654 15.5569C40.0558 13.6183 44.9475 12.6339 50 12.6339C55.0525 12.6339 59.9442 13.6183 64.5446 15.567C68.9877 17.4434 73.0235 20.1658 76.4275 23.5826C79.8627 27.0179 82.5547 31.0156 84.4431 35.4654C86.3817 40.0558 87.3661 44.9475 87.3661 50C87.3661 55.0525 86.3817 59.9442 84.433 64.5446C82.5589 68.9859 79.8361 73.0189 76.4174 76.4174ZM65.2679 52.1094H60.4364C60.0145 52.1094 59.6529 52.4308 59.6228 52.8527C59.2411 57.8248 55.0725 61.7522 50 61.7522C44.9275 61.7522 40.7489 57.8248 40.3772 52.8527C40.3471 52.4308 39.9855 52.1094 39.5636 52.1094H34.7321C34.6231 52.1092 34.5153 52.1313 34.4151 52.1741C34.3148 52.217 34.2244 52.2798 34.1492 52.3588C34.0741 52.4377 34.0157 52.5311 33.9778 52.6333C33.9399 52.7354 33.9231 52.8443 33.9286 52.9531C34.3705 61.4208 41.4118 68.1808 50 68.1808C58.5882 68.1808 65.6295 61.4208 66.0714 52.9531C66.0769 52.8443 66.0601 52.7354 66.0222 52.6333C65.9843 52.5311 65.9259 52.4377 65.8508 52.3588C65.7756 52.2798 65.6851 52.217 65.5849 52.1741C65.4847 52.1313 65.3769 52.1092 65.2679 52.1094Z" fill="#3B5F5D"/>
</svg>
