<svg width="100" height="100" viewBox="0 0 100 100" fill="none" xmlns="http://www.w3.org/2000/svg">
<path d="M15 95C12.25 95 9.89666 94.0217 7.94 92.065C5.98333 90.1083 5.00333 87.7533 5 85V15C5 12.25 5.98 9.89668 7.94 7.94002C9.9 5.98335 12.2533 5.00335 15 5.00002H55C56.4166 5.00002 57.605 5.48002 58.565 6.44002C59.525 7.40002 60.0033 8.58668 60 10C59.9966 11.4133 59.5166 12.6017 58.56 13.565C57.6033 14.5283 56.4166 15.0067 55 15H15V85H84.9999V45C84.9999 43.5833 85.4799 42.3967 86.4399 41.44C87.3999 40.4833 88.5866 40.0033 89.9999 40C91.4133 39.9967 92.6016 40.4767 93.5649 41.44C94.5283 42.4033 95.0066 43.59 94.9999 45V85C94.9999 87.75 94.0216 90.105 92.0649 92.065C90.1083 94.025 87.7533 95.0033 84.9999 95H15ZM35 75C33.5833 75 32.3966 74.52 31.44 73.56C30.4833 72.6 30.0033 71.4133 30 70C29.9966 68.5867 30.4766 67.4 31.44 66.44C32.4033 65.48 33.59 65 35 65H65C66.4166 65 67.605 65.48 68.565 66.44C69.525 67.4 70.0033 68.5867 70 70C69.9966 71.4133 69.5166 72.6017 68.56 73.565C67.6033 74.5283 66.4166 75.0067 65 75H35ZM35 60C33.5833 60 32.3966 59.52 31.44 58.56C30.4833 57.6 30.0033 56.4133 30 55C29.9966 53.5867 30.4766 52.4 31.44 51.44C32.4033 50.48 33.59 50 35 50H65C66.4166 50 67.605 50.48 68.565 51.44C69.525 52.4 70.0033 53.5867 70 55C69.9966 56.4133 69.5166 57.6017 68.56 58.565C67.6033 59.5283 66.4166 60.0067 65 60H35ZM35 45C33.5833 45 32.3966 44.52 31.44 43.56C30.4833 42.6 30.0033 41.4133 30 40C29.9966 38.5867 30.4766 37.4 31.44 36.44C32.4033 35.48 33.59 35 35 35H65C66.4166 35 67.605 35.48 68.565 36.44C69.525 37.4 70.0033 38.5867 70 40C69.9966 41.4133 69.5166 42.6017 68.56 43.565C67.6033 44.5283 66.4166 45.0067 65 45H35ZM79.9999 35C78.5833 35 77.3966 34.52 76.4399 33.56C75.4833 32.6 75.0033 31.4133 74.9999 30V25H70C68.5833 25 67.3966 24.52 66.44 23.56C65.4833 22.6 65.0033 21.4133 65 20C64.9966 18.5867 65.4766 17.4 66.44 16.44C67.4033 15.48 68.59 15 70 15H74.9999V10C74.9999 8.58335 75.4799 7.39668 76.4399 6.44002C77.3999 5.48335 78.5866 5.00335 79.9999 5.00002C81.4133 4.99668 82.6016 5.47668 83.5649 6.44002C84.5283 7.40335 85.0066 8.59002 84.9999 10V15H89.9999C91.4166 15 92.6049 15.48 93.5649 16.44C94.5249 17.4 95.0033 18.5867 94.9999 20C94.9966 21.4133 94.5166 22.6017 93.5599 23.565C92.6033 24.5283 91.4166 25.0067 89.9999 25H84.9999V30C84.9999 31.4167 84.5199 32.605 83.5599 33.565C82.5999 34.525 81.4133 35.0033 79.9999 35Z" fill="#3B5F5D"/>
</svg>
